<svg width="24" height="24" viewBox="0 0 24 24" fill="none" xmlns="http://www.w3.org/2000/svg">
<g clip-path="url(#clip0_1316_12727)">
<path d="M16.646 15.574H21.796C21.796 15.574 22.796 15.574 22.796 16.574V21.724C22.796 21.724 22.796 22.724 21.796 22.724H16.646C16.646 22.724 15.646 22.724 15.646 21.724V16.574C15.646 16.574 15.646 15.574 16.646 15.574Z" stroke="black" stroke-width="1.5" stroke-linejoin="round"/>
<path d="M8.64648 5H15.6846C17.6381 5 19.2217 6.58362 19.2217 8.53711C19.2217 10.4906 17.6381 12.0742 15.6846 12.0742H12.2987" stroke="black" stroke-width="1.5" stroke-linejoin="round"/>
<path d="M12.6556 12.0742H8.60742C6.65393 12.0742 5.07031 13.6578 5.07031 15.6113C5.07031 17.5648 6.65393 19.1484 8.60742 19.1484H15.7959" stroke="black" stroke-width="1.5" stroke-linejoin="round"/>
<path d="M1.20398 4.99902C1.20398 5.48766 1.30023 5.97153 1.48722 6.42298C1.67422 6.87443 1.94831 7.28463 2.29384 7.63016C2.63936 7.97569 3.04956 8.24977 3.50101 8.43677C3.95247 8.62377 4.43633 8.72002 4.92498 8.72002C5.41363 8.72002 5.89749 8.62377 6.34894 8.43677C6.8004 8.24977 7.2106 7.97569 7.55612 7.63016C7.90165 7.28463 8.17574 6.87443 8.36274 6.42298C8.54973 5.97153 8.64598 5.48766 8.64598 4.99902C8.64598 4.01214 8.25395 3.06569 7.55612 2.36787C6.8583 1.67005 5.91185 1.27802 4.92498 1.27802C3.93811 1.27802 2.99166 1.67005 2.29384 2.36787C1.59601 3.06569 1.20398 4.01214 1.20398 4.99902Z" stroke="black" stroke-width="1.5"/>
</g>
<defs>
<clipPath id="clip0_1316_12727">
<rect width="24" height="24" fill="white"/>
</clipPath>
</defs>
</svg>
